<svg width="31" height="31" viewBox="0 0 31 31" fill="none" xmlns="http://www.w3.org/2000/svg">
<g clip-path="url(#clip0_33_11)">
<path d="M28.3317 13.6377V7.39284C28.3317 3.31164 24.9632 0 20.819 0H10.1965C6.0585 0 2.68378 3.31795 2.68378 7.39284V13.6377C1.10681 14.4009 0.00292969 16.0031 0.00292969 17.8702V31.0033H10.3353V29.7102H20.6676V31.0033H30.9999V17.8702C31.0125 16.0031 29.9086 14.3946 28.3317 13.6377ZM7.75532 19.3778V21.9641V28.4233H2.58916V17.8702C2.58916 16.861 3.29565 16.0157 4.24183 15.8013H4.25445C4.41845 15.7634 4.56984 15.7445 4.71492 15.7445H5.62326C6.79653 15.7445 7.75532 16.697 7.75532 17.8766V19.3778ZM20.6739 21.9578H10.3416V19.3715H20.6739V21.9578ZM23.2601 28.417V21.9578V19.3715V17.8639C23.2601 16.6907 24.2126 15.7319 25.3922 15.7319H26.2942C26.4393 15.7319 26.5907 15.7508 26.7547 15.7886H26.7673C27.7135 16.0031 28.42 16.8484 28.42 17.8576V28.417H23.2601Z" fill="#00B5EC"/>
</g>
<defs>
<clipPath id="clip0_33_11">
<rect width="31" height="31" fill="white"/>
</clipPath>
</defs>
</svg>
