<svg width="43" height="44" viewBox="0 0 43 44" fill="none" xmlns="http://www.w3.org/2000/svg">
<path d="M32.1781 17.625L37.0492 22.1804C37.6378 22.7386 37.4698 23.169 36.6716 23.169H33.018V35.071C33.018 35.8877 32.3461 36.6179 31.5479 36.6179H25.2067V28.2812C25.2067 27.4645 24.4932 26.7344 23.695 26.7344H19.7054C18.9072 26.7344 18.1937 27.4645 18.1937 28.2812V36.6179H11.8526C11.0544 36.6179 10.3408 35.8877 10.3408 35.071V23.169H6.72883C5.93064 23.169 5.76267 22.7386 6.35124 22.1804L20.5869 8.946C21.1755 8.38775 22.1833 8.38775 22.8122 8.946L26.0452 11.9105V9.54688C26.0452 8.73013 26.7588 8 27.557 8H30.7067C31.5049 8 32.1768 8.73013 32.1768 9.54688L32.1781 17.625Z" fill="#4DB848"/>
</svg>
