<svg width="43" height="43" viewBox="0 0 43 43" fill="none" xmlns="http://www.w3.org/2000/svg">
<path d="M39.4165 11.8648V30.8973C39.4165 32.8913 38.1367 34.8852 36.1258 35.6101L26.9845 39.0543C26.4361 39.2354 25.8876 39.4167 25.1563 39.4167C24.2422 39.4167 23.1453 39.0543 22.2312 38.5105C21.8655 38.1479 21.3171 37.7854 21.1342 37.4228H14.1869C11.4446 37.4228 9.06787 35.2477 9.06787 32.3475V30.5349C9.06787 29.8098 9.61635 29.0847 10.5305 29.0847C11.4446 29.0847 11.9931 29.6285 11.9931 30.5349V32.3475C11.9931 33.6164 13.09 34.5226 14.1869 34.5226H20.2201V8.42083H14.1869C12.9072 8.42083 11.9931 9.32714 11.9931 10.596V12.4086C11.9931 13.1336 11.4446 13.8587 10.5305 13.8587C9.61635 13.8587 9.06787 13.1336 9.06787 12.4086V10.596C9.06787 7.87704 11.2618 5.52062 14.1869 5.52062H21.1342C21.4999 5.1581 21.8655 4.79557 22.2312 4.43304C23.6937 3.52673 25.3392 3.34547 26.9845 3.88926L36.1258 7.33325C37.954 7.87704 39.4165 9.87093 39.4165 11.8648Z" fill="#EC0000"/>
<path d="M8.70254 26.5469C8.3369 26.5469 7.97125 26.3658 7.78843 26.1845L4.13196 22.5592C3.94914 22.3779 3.94914 22.1967 3.76632 22.1967C3.76632 22.0154 3.5835 21.8341 3.5835 21.653C3.5835 21.4717 3.5835 21.2903 3.76632 21.1092C3.76632 20.9279 3.94914 20.7466 4.13196 20.7466L7.78843 17.1213C8.3369 16.5776 9.25102 16.5776 9.79949 17.1213C10.348 17.6651 10.348 18.5715 9.79949 19.1153L8.51972 20.3841H16.0155C16.7468 20.3841 17.4781 20.9279 17.4781 21.8341C17.4781 22.7405 16.7468 22.9218 16.0155 22.9218H8.33689L9.61666 24.1905C10.1651 24.7343 10.1651 25.6407 9.61666 26.1845C9.43384 26.3658 9.06818 26.5469 8.70254 26.5469Z" fill="#EC0000"/>
</svg>
