<svg width="60" height="60" viewBox="0 0 60 60" fill="none" xmlns="http://www.w3.org/2000/svg">
<path d="M43.0415 48.3308C39.8373 44.752 35.1818 42.5 30 42.5C24.8184 42.5 20.1623 44.752 16.958 48.3308M30 52.5C17.5736 52.5 7.5 42.4265 7.5 30C7.5 17.5736 17.5736 7.5 30 7.5C42.4265 7.5 52.5 17.5736 52.5 30C52.5 42.4265 42.4265 52.5 30 52.5ZM30 35C25.8577 35 22.5 31.6423 22.5 27.5C22.5 23.3579 25.8577 20 30 20C34.1423 20 37.5 23.3579 37.5 27.5C37.5 31.6423 34.1423 35 30 35Z" stroke="#00B5EC" stroke-width="5" stroke-linecap="round" stroke-linejoin="round"/>
</svg>
