<svg width="30" height="30" viewBox="0 0 30 30" fill="none" xmlns="http://www.w3.org/2000/svg">
<path d="M6.53701 17.0165L15.3657 26.6409C16.0792 27.4819 15.9759 28.7422 15.1348 29.4557C14.2937 30.1692 13.0335 30.0658 12.32 29.2247L0.579463 16.4261C0.410638 16.2565 0.273834 16.0578 0.175634 15.8395C0.0535187 15.5682 -0.00631361 15.2731 0.000526973 14.9756L0.00055627 14.9738C0.00735417 14.677 0.0800558 14.3855 0.213398 14.1202C0.226364 14.0946 0.239883 14.0692 0.253945 14.0441C0.335316 13.8985 0.434756 13.7638 0.549902 13.6431L12.6026 0.639495C13.3524 -0.169421 14.6159 -0.217351 15.4248 0.532385C16.2337 1.28212 16.2817 2.5457 15.5319 3.35458L6.57102 13.0224H27.9712C29.0742 13.0224 29.9683 13.9165 29.9683 15.0195C29.9683 16.1224 29.0742 17.0165 27.9712 17.0165H6.53701V17.0165Z" fill="#00B5EC"/>
</svg>
